{"title":"Law.and.Order.LA.S01.E01&amp;2.PsP...vice","uid":5873779,"size":359940372,"categoryP":"video","categoryS":"handheld","magnet":"?xt=urn:btih:15ba5d985c3bcedbbd723b2a4e4a11901072c4e8&amp;dn=Law.and.Order.LA.S01.E01%262.PsP...vice&amp;tr=udp%3A%2F%2Ftracker.openbittorrent.com%3A80&amp;tr=udp%3A%2F%2Fopen.demonii.com%3A1337&amp;tr=udp%3A%2F%2Ftracker.coppersurfer.tk%3A6969&amp;tr=udp%3A%2F%2Fexodus.desync.com%3A6969","seeders":0,"leechers":1,"uploader":"vicerock","files":6,"time":1286531681,"description":"Format                           : MPEG-4\nFormat profile                   : Base Media / Version 2\nCodec ID                         : mp42\nFile size                        : 164 MiB\nOverall bit rate                 : 578 Kbps\nEncoded date                     : UTC 2010-10-07 15:41:28\nTagged date                      : UTC 2010-10-07 15:41:39\nWriting application              : mp4creator 1.6.1d\n\nVideo\nID                               : 1\nFormat                           : AVC\nFormat/Info                      : Advanced Video Codec\nFormat profile                   : &lt;a class=&quot;__cf_email__&quot; href=&quot;/cdn-cgi/l/email-protection&quot; data-cfemail=&quot;50123123353c393e35101c617e63&quot;&gt;[email&amp;#160;protected]&lt;/a&gt;&lt;script cf-hash='f9e31' type=&quot;text/javascript&quot;&gt;\n/* &lt;![CDATA[ */!function(){try{var t=&quot;currentScript&quot;in document?document.currentScript:function(){for(var t=document.getElementsByTagName(&quot;script&quot;),e=t.length;e--;)if(t[e].getAttribute(&quot;cf-hash&quot;))return t[e]}();if(t&amp;&amp;t.previousSibling){var e,r,n,i,c=t.previousSibling,a=c.getAttribute(&quot;data-cfemail&quot;);if(a){for(e=&quot;&quot;,r=parseInt(a.substr(0,2),16),n=2;a.length-n;n+=2)i=parseInt(a.substr(n,2),16)^r,e+=String.fromCharCode(i);e=document.createTextNode(e),c.parentNode.replaceChild(e,c)}}}catch(u){}}();/* ]]&gt; */&lt;/script&gt;\nFormat settings, CABAC           : No\nFormat settings, ReFrames        : 1 frame\nCodec ID                         : avc1\nCodec ID/Info                    : Advanced Video Coding\nBit rate mode                    : Variable\nBit rate                         : 514 Kbps\nWidth                            : 480 pixels\nHeight                           : 272 pixels\nDisplay aspect ratio             : 16:9\nOriginal display aspect ratio    : 16:9\nFrame rate mode                  : Constant\nFrame rate                       : 24.000 fps\nResolution                       : 24 bits\nColorimetry                      : 4:2:0\nScan type                        : Progressive\nBits/(Pixel*Frame)               : 0.164\nStream size                      : 146 MiB (89%)\nEncoded date                     : UTC 2010-10-07 15:41:28\nTagged date                      : UTC 2010-10-07 15:41:38\n\nAudio\nID                               : 2\nFormat                           : AAC\nFormat/Info                      : Advanced Audio Codec\nFormat version                   : Version 4\nFormat profile                   : LC\nFormat settings, SBR             : Yes\nFormat settings, PS              : No\nCodec ID                         : 40\nDuration                         : 39mn 45s\nBit rate mode                    : Variable\nBit rate                         : 62.7 Kbps\nMaximum bit rate                 : 140 Kbps\nChannel(s)                       : 2 channels\nChannel positions                : L R\nSampling rate                    : 48.0 KHz\nResolution                       : 16 bits\nStream size                      : 17.8 MiB (11%)\nEncoded date                     : UTC 2010-10-07 15:41:39\nTagged date                      : UTC 2010-10-07 15:41:39\n\nLaw &amp; Order: Los Angeles is an American police procedural-legal television drama series set in Los Angeles, where it is produced. Created and produced by Dick Wolf and developed by Blake Masters, it premiered on NBC on September 29, 2010, as a spin-off of Wolf's successful crime drama Law &amp; Order.\n\nThanks to LOL for the original files\n &lt;a href=&quot;\nhttp://www.imdb.com/title/tt1657081/&quot; rel=&quot;nofollow&quot; target=&quot;_NEW&quot;&gt;\nhttp://www.imdb.com/title/tt1657081/&lt;/a&gt;\n\nscreen shots\n &lt;a href=&quot;\nhttp://img543.imageshack.us/img543/9410/laworderlae1mp4snapshot.jpg&quot; rel=&quot;nofollow&quot; target=&quot;_NEW&quot;&gt;\nhttp://img543.imageshack.us/img543/9410/laworderlae1mp4snapshot.jpg&lt;/a&gt; &lt;a href=&quot;\nhttp://img837.imageshack.us/img837/9410/laworderlae1mp4snapshot.jpg&quot; rel=&quot;nofollow&quot; target=&quot;_NEW&quot;&gt;\nhttp://img837.imageshack.us/img837/9410/laworderlae1mp4snapshot.jpg&lt;/a&gt; &lt;a href=&quot;\nhttp://img545.imageshack.us/img545/9410/laworderlae1mp4snapshot.jpg&quot; rel=&quot;nofollow&quot; target=&quot;_NEW&quot;&gt;\nhttp://img545.imageshack.us/img545/9410/laworderlae1mp4snapshot.jpg&lt;/a&gt; &lt;a href=&quot;\nhttp://img571.imageshack.us/img571/9410/laworderlae1mp4snapshot.jpg&quot; rel=&quot;nofollow&quot; target=&quot;_NEW&quot;&gt;\nhttp://img571.imageshack.us/img571/9410/laworderlae1mp4snapshot.jpg&lt;/a&gt;\n &lt;a href=&quot;\nhttp://img651.imageshack.us/img651/5766/laworderlae2mp4thumbs20.jpg&quot; rel=&quot;nofollow&quot; target=&quot;_NEW&quot;&gt;\nhttp://img651.imageshack.us/img651/5766/laworderlae2mp4thumbs20.jpg&lt;/a&gt;","torrent":{"xt":"urn:btih:15ba5d985c3bcedbbd723b2a4e4a11901072c4e8","amp;dn":"Law.and.Order.LA.S01.E01%262.PsP...vice","amp;tr":["udp%3A%2F%2Ftracker.openbittorrent.com%3A80","udp%3A%2F%2Fopen.demonii.com%3A1337","udp%3A%2F%2Ftracker.coppersurfer.tk%3A6969","udp%3A%2F%2Fexodus.desync.com%3A6969"],"infoHash":"15ba5d985c3bcedbbd723b2a4e4a11901072c4e8","infoHashBuffer":{"type":"Buffer","data":[21,186,93,152,92,59,206,219,189,114,59,42,78,74,17,144,16,114,196,232]},"announce":[],"urlList":[]}}